<?xml version="1.0" standalone="no"?>
<!DOCTYPE svg PUBLIC "-//W3C//DTD SVG 20010904//EN"
 "http://www.w3.org/TR/2001/REC-SVG-20010904/DTD/svg10.dtd">
<svg version="1.0" xmlns="http://www.w3.org/2000/svg"
 width="700.000000pt" height="700.000000pt" viewBox="0 0 700.000000 700.000000"
 preserveAspectRatio="xMidYMid meet">
<metadata>
Created by potrace 1.11, written by Peter Selinger 2001-2013
</metadata>
<g transform="translate(0.000000,700.000000) scale(0.100000,-0.100000)"
fill="#000000" stroke="none">
<path d="M0 5555 l0 -255 1083 -2 1082 -3 48 -23 c102 -49 189 -110 270 -189
112 -111 198 -274 225 -428 9 -51 9 -245 -1 -310 -29 -214 -168 -412 -369
-528 -100 -58 -75 -57 -1255 -57 l-1083 0 0 -255 0 -255 1080 0 c1237 0 1113
10 1277 -99 133 -88 225 -188 291 -316 31 -61 60 -139 69 -185 2 -14 8 -41 12
-60 15 -68 5 -239 -20 -355 -13 -59 -90 -222 -122 -257 -12 -14 -40 -45 -62
-69 -88 -98 -210 -169 -320 -186 -22 -4 -527 -7 -1122 -7 l-1083 -1 0 -263 0
-263 1148 3 1147 3 89 28 c367 115 672 415 794 783 27 80 39 133 58 247 13 76
12 326 -1 409 -45 293 -182 552 -403 763 l-63 61 79 79 c73 74 172 195 172
210 0 3 13 25 29 48 15 23 39 67 51 97 13 30 27 60 30 65 9 12 49 132 55 164
2 12 7 31 10 41 18 58 33 232 30 360 -6 262 -77 487 -222 707 -56 85 -205 246
-278 299 -151 111 -327 203 -447 233 -69 18 -129 19 -1175 20 l-1103 1 0 -255z"/>
<path d="M3772 5790 c-8 -6 -10 -499 -2 -501 3 -1 487 -2 1075 -4 818 -1 1077
-5 1100 -14 111 -46 219 -117 302 -199 121 -121 196 -266 227 -440 12 -66 13
-234 3 -293 -3 -13 -8 -42 -12 -64 -21 -110 -102 -259 -192 -349 -62 -63 -169
-132 -239 -156 -54 -19 -97 -20 -1156 -20 -605 0 -1103 -2 -1107 -4 -5 -3 -7
-438 -2 -493 1 -10 227 -12 1039 -12 1169 0 1088 5 1208 -79 86 -61 139 -119
208 -225 102 -157 160 -288 210 -467 42 -154 47 -234 49 -770 l2 -505 251 -3
c234 -2 252 -1 255 15 7 28 2 1072 -5 1133 -13 129 -19 161 -46 267 -58 227
-152 418 -303 618 -33 44 -64 82 -67 85 -4 3 -28 29 -54 59 l-47 53 33 27
c139 110 272 270 349 418 44 84 96 219 105 273 3 14 7 32 10 40 3 8 8 27 10
43 2 15 7 42 10 60 3 17 8 106 9 197 3 129 -1 186 -15 261 -52 274 -171 500
-365 694 -78 79 -259 215 -284 215 -5 0 -11 3 -13 8 -4 10 -119 66 -188 91
-127 46 -89 45 -1248 46 -606 0 -1106 -2 -1110 -5z"/>
</g>
</svg>
