<svg xmlns="http://www.w3.org/2000/svg" viewBox="0 0 100 125"><path d="M15.031 23c-2.348 0-4.46.591-5.937 2.062C7.616 26.534 7 28.666 7 31v38c0 2.33.608 4.436 2.094 5.906 1.486 1.47 3.633 2.094 6 2.094H85.03c2.317 0 4.442-.639 5.907-2.125C92.402 73.389 93 71.273 93 68.906v-38c0-2.297-.607-4.388-2.062-5.844C89.482 23.607 87.392 23 85.094 23zm71.594 4.156L52.031 55.187c-1.471.72-2.59.72-4.062 0l-34.563-28C37 27.018 67 27.018 86.625 27.157zm-75.594 3.219l24.032 19.5-23.97 20.406c-.098-13.89-.093-27.263-.062-39.906zm77.938 0C89 44.018 89 58.018 88.875 70.281L64.937 49.875zM38.25 52.437c2.6 2.096 5.248 4.303 7.844 6.344a8.678 8.678 0 0 0 7.812 0c2.616-2.045 5.242-4.23 7.844-6.344L85.844 72.97c-23.844.05-50.106 0-71.688-.031z"/></svg>