<svg xmlns="http://www.w3.org/2000/svg" viewBox="0 0 24 30"><g fill="none" fill-rule="evenodd"><path d="M0 0h24v24H0z"/><path d="M14.095 15.635l.678-.675.785-.78c.858-.85 2.003-.85 2.863 0 .798.792 1.607 1.6 2.43 2.43.87.876.864 2.022-.009 2.903-.172.174-.455.382-.84.63l-.27.17a25.823 25.823 0 0 1-1.144.663c-.989.57-2.594.694-3.623.296a9.284 9.284 0 0 1-.543-.19A20.306 20.306 0 0 1 8.846 17.8a18.379 18.379 0 0 1-2.638-2.694 20.82 20.82 0 0 1-3.344-6.04 8.011 8.011 0 0 1-.172-.545c-.388-1.067-.168-2.673.478-3.618a19.072 19.072 0 0 1 .883-1.244c.17-.215.323-.392.46-.527.86-.845 2.003-.844 2.863.001.351.345 1.866 1.86 2.414 2.414.887.895.89 2.027.003 2.917-.132.134-.421.423-.82.822l-.619.62-.23.23c.057.143.15.364.278.64.247.533.53 1.066.842 1.56.34.54.696 1 1.06 1.354a8.5 8.5 0 0 0 1.186.946c.526.353 1.093.67 1.66.943.293.141.53.244.69.31l.255-.255zM8.1 10.074zm12.041 7.24a414.572 414.572 0 0 0-2.424-2.423c-.47-.465-.987-.465-1.455-.001l-.781.777-.68.676-.308.307a.917.917 0 0 1-.959.194 12.064 12.064 0 0 1-.819-.364 14.569 14.569 0 0 1-1.783-1.013 9.42 9.42 0 0 1-1.327-1.06c-.425-.415-.827-.934-1.206-1.535a14.728 14.728 0 0 1-.905-1.676 12.36 12.36 0 0 1-.325-.759.921.921 0 0 1 .197-.956l.281-.282.618-.618.82-.821c.497-.5.496-1.003-.005-1.508-.545-.55-2.058-2.064-2.404-2.404-.472-.463-.992-.464-1.461-.002a4.63 4.63 0 0 0-.376.433 18.098 18.098 0 0 0-.836 1.178c-.474.693-.647 1.963-.358 2.765.024.09.078.268.165.52.146.428.332.905.561 1.42a19.828 19.828 0 0 0 2.618 4.32 17.38 17.38 0 0 0 2.497 2.549 19.315 19.315 0 0 0 3.983 2.55c.475.228.915.416 1.308.565.233.089.397.144.513.181.782.301 2.072.202 2.809-.223a24.85 24.85 0 0 0 1.362-.803c.326-.21.564-.384.67-.492.489-.492.491-1.01.01-1.495z" fill="#000" fill-rule="nonzero"/></g></svg>