<svg xmlns="http://www.w3.org/2000/svg" viewBox="0 0 100 125"><path d="M87.834 92.5H13.166c-2.572 0-4.666-2.109-4.666-4.703V82.5c0-7.281 15.473-13.129 29.863-16.994C29.981 57.49 26.5 48.234 26.5 34.5c0-15.723 9.342-25.906 23.816-25.992.061-.006.122-.008.184-.008 14.58 0 24 10.205 24 26 0 13.73-3.48 22.988-11.863 31.006C77.028 69.369 92.5 75.219 92.5 82.5v5.297c0 2.594-2.094 4.703-4.666 4.703zm-37.164-80a1.612 1.612 0 0 1-.17.008c-9.668 0-20 5.777-20 21.992 0 14.047 3.721 22.586 13.271 30.457a1.997 1.997 0 0 1-.787 3.482C22.039 73.676 12.5 79.398 12.5 82.5v5.297c0 .381.305.703.666.703h74.668c.367 0 .666-.314.666-.703V82.5c0-3.102-9.539-8.824-30.484-14.061a1.999 1.999 0 0 1-.787-3.482C66.78 57.084 70.5 48.545 70.5 34.5c0-16.125-10.211-21.932-19.83-22z"/></svg>