<svg xmlns="http://www.w3.org/2000/svg" viewBox="0 0 482.31 270">
  <path d="M451.12 139.37c17.06-11.72 28.26-30.93 30.7-53.56 3.08-28.5-8.67-56-30.67-71.72C438.37 4.95 427.42.5 417.69.5H293v30h124.69c.49 0 5.15.22 16 8 13.21 9.45 20.22 26.34 18.3 44.09-1.79 16.54-10.91 29.87-24.39 35.66a24.26 24.26 0 0 1-9.91 1.75H293v30h120.94c6.06 0 15.34 7.26 18.14 10.63C444 175 451 195 452 210.59V270h30v-59.41a97.21 97.21 0 0 0-24.29-63.65zM162.16 135.88C177 124 186.58 106.1 188.82 85.31c3.09-28.5-8.66-56-30.66-71.71C145.37 4.45 134.42 0 124.69 0H0v30h124.69c.5 0 5.15.22 16 8 13.21 9.44 20.22 26.34 18.3 44.09-1.79 16.54-10.91 29.87-24.4 35.66a25.3 25.3 0 0 1-9.91 2.25H0v30h125.69c.5 0 5.15.22 16 8 13.21 9.44 20.22 26.34 18.3 44.09-1.79 16.54-10.91 29.87-24.4 35.66a25.3 25.3 0 0 1-9.91 2.25H0v30h125.69a55.13 55.13 0 0 0 21.75-4.68c23.57-10.12 39.42-32.55 42.38-60 2.95-27.19-7.6-53.43-27.66-69.44z"/>
</svg>