<svg xmlns="http://www.w3.org/2000/svg" viewBox="0 0 492 235.12">
  <path d="M464.84 121.37c14.85-10.21 24.61-26.93 26.74-46.64C494.26 49.91 484 26 464.87 12.28 453.73 4.31 444.2.44 435.73.44H327.15v26.12h108.58c.43 0 4.48.2 13.94 7 11.5 8.23 17.6 22.94 15.93 38.4-1.56 14.4-9.5 26-21.24 31.05a21.13 21.13 0 0 1-8.63 1.52H327.15v26.12h105.31c5.28 0 13.36 6.32 15.8 9.26 10.38 12.51 16.48 29.93 17.35 43.5v51.74h26.12v-51.77A84.65 84.65 0 0 0 470.57 128z"/>
  <path d="M141.21 118.33c12.88-10.34 21.27-25.93 23.22-44 2.69-24.82-7.54-48.75-26.7-62.45C126.59 3.88 117.05 0 108.58 0H0v26.12h108.58c.44 0 4.48.19 13.94 7C134 41.31 140.13 56 138.46 71.48c-1.56 14.4-9.5 26-21.25 31.05a22 22 0 0 1-8.63 2H0v26.12h109.45c.44 0 4.48.19 13.94 7 11.5 8.22 17.61 22.94 15.94 38.39-1.56 14.4-9.5 26-21.25 31.05a22 22 0 0 1-8.63 2H0v26.12h109.45a48 48 0 0 0 18.94-4.21c20.52-8.81 34.33-28.34 36.9-52.26 2.58-23.62-6.61-46.47-24.08-60.41z" fill="#fff"/>
</svg>