<svg xmlns="http://www.w3.org/2000/svg" viewBox="0 0 70 100"><path d="M59.65 50.33a27.47 27.47 0 0 0 9.8-18.73C70.59 21 66.27 10.86 58.17 5c-4.7-3.39-8.73-5-12.31-5H0v11.11h45.86c.18 0 1.89.08 5.89 3 4.86 3.5 7.44 9.76 6.73 16.33-.66 6.13-4 11.06-9 13.21a9.25 9.25 0 0 1-3.65.83H0v11.08h46.23c.18 0 1.89.08 5.89 3C57 62 59.55 68.27 58.85 74.85c-.66 6.13-4 11.06-9 13.21a9.25 9.25 0 0 1-3.65.83H0V100h46.23a20.16 20.16 0 0 0 8-1.73C62.9 94.52 68.73 86.21 69.82 76a28.9 28.9 0 0 0-10.17-25.67z"/></svg>