<?xml version="1.0" encoding="utf-8"?>
<!-- Generator: Adobe Illustrator 21.0.0, SVG Export Plug-In . SVG Version: 6.00 Build 0)  -->
<svg version="1.1" id="Layer_1" xmlns="http://www.w3.org/2000/svg" xmlns:xlink="http://www.w3.org/1999/xlink" x="0px" y="0px"
	 viewBox="0 0 34 34" style="enable-background:new 0 0 34 34;" xml:space="preserve">
<path d="M19.8,17L32.9,3.9c0.8-0.8,0.8-2,0-2.8s-2-0.8-2.8,0L17,14.2L3.9,1.1c-0.8-0.8-2-0.8-2.8,0s-0.8,2,0,2.8L14.2,17L1.1,30.1
	c-0.8,0.8-0.8,2,0,2.8s2,0.8,2.8,0L17,19.8l13.1,13.1c0.8,0.8,2,0.8,2.8,0s0.8-2,0-2.8L19.8,17z"/>
</svg>
