<svg xmlns="http://www.w3.org/2000/svg" viewBox="0 0 100 125">
  <path d="M94.077 80.619C88.979 92.841 77.026 94.983 73.12 94.983c-1.147 0-19.01.947-44.688-23.41C7.767 51.971 5.242 30.892 5.022 26.887c-.214-3.901.903-13.687 14.365-20.958 1.668-.901 4.975-1.3 5.829-.446.379.379 11.678 18.972 11.975 19.588.297.615.446 1.221.446 1.815 0 .849-.605 1.911-1.816 3.185a30.947 30.947 0 0 1-3.949 3.503 38.454 38.454 0 0 0-3.95 3.376c-1.21 1.188-1.815 2.166-1.815 2.93.082 1.983 1.707 9.086 14.086 19.963C52.574 70.723 58.538 73.788 59.111 74c.574.212 1.051.317 1.433.317.765 0 1.742-.604 2.931-1.814 1.188-1.211 5.185-6.689 6.459-7.9 1.274-1.209 2.336-1.814 3.186-1.814.594 0 1.199.148 1.814.445.616.297 19.233 11.191 19.589 11.555.966.99.284 4.08-.446 5.83"/>
</svg>