<svg xmlns="http://www.w3.org/2000/svg"><symbol id="arrow" viewBox="0 0 31.95 16.46"><path d="M23.72 0l-1.49 1.5 5.66 5.66H0V9.3h27.89l-5.66 5.66 1.49 1.5 8.23-8.23L23.72 0z"/></symbol><symbol id="close" viewBox="0 0 34 34"><path d="M19.8 17L32.9 3.9c.8-.8.8-2 0-2.8s-2-.8-2.8 0L17 14.2 3.9 1.1c-.8-.8-2-.8-2.8 0s-.8 2 0 2.8L14.2 17 1.1 30.1c-.8.8-.8 2 0 2.8s2 .8 2.8 0L17 19.8l13.1 13.1c.8.8 2 .8 2.8 0s.8-2 0-2.8L19.8 17z"/></symbol><symbol id="fb" viewBox="0 0 30 30"><path d="M22 16l1-5-5 .001V7c0-1.544.784-2 3-2h2V0h-4c-4.072 0-7 2.435-7 7v4H7v5h5v14h6V16h4z"/></symbol><symbol id="hamburger" viewBox="0 0 34 34"><rect width="34" height="6" rx="2" ry="2"/><rect y="14" width="34" height="6" rx="2" ry="2"/><rect y="28" width="34" height="6" rx="2" ry="2"/></symbol><symbol id="instagram" viewBox="0 0 30 30"><path d="M26 0H3.5C1.582 0 .027 1.586.004 3.5L0 3.458V26.5A3.5 3.5 0 0 0 3.5 30h23c1.873-.067 3.5-1.609 3.5-3.5v-23C29.978 1.629 27.859.067 26 0zM15 9.5a5.5 5.5 0 1 1 0 11 5.5 5.5 0 0 1 0-11zM26 24a2 2 0 0 1-2 2H6a2 2 0 0 1-2-2V12.5h2.359A9.008 9.008 0 0 0 6 15c0 4.97 4.031 9 9 9a9 9 0 0 0 9-9c0-.868-.13-1.706-.359-2.5H26l-.004 11.461c0 .014.004.025.004.039zm0-18.992v3.016h-.005a.995.995 0 0 1-.979.974V9H22a.997.997 0 0 1-.995-.977H21V5.008h.002L21 5a1 1 0 0 1 1-1h3.016v.003c.545.009.984.45.984.997l-.002.008H26z"/></symbol><symbol id="intro-arrow" viewBox="0 0 40 9.99"><g fill="#fff"><path d="M34.29 8.58l3.09-3.09H.5v-1h36.86l-3.08-3.08.71-.7 4.3 4.3-.71.71-.35.34L35 9.29l-.71-.71z"/><path d="M35 1.41l3 3 .24.24-1.38-1.37L35 1.41m0-1.42l-1.42 1.42 2.58 2.58H0v2h36.17l-2.58 2.59L35 9.99l3.58-3.58L40 4.99l-1-1-4-4z"/></g></symbol><symbol id="mail" viewBox="0 0 100 125"><path d="M15.031 23c-2.348 0-4.46.591-5.937 2.062C7.616 26.534 7 28.666 7 31v38c0 2.33.608 4.436 2.094 5.906 1.486 1.47 3.633 2.094 6 2.094H85.03c2.317 0 4.442-.639 5.907-2.125C92.402 73.389 93 71.273 93 68.906v-38c0-2.297-.607-4.388-2.062-5.844C89.482 23.607 87.392 23 85.094 23zm71.594 4.156L52.031 55.187c-1.471.72-2.59.72-4.062 0l-34.563-28C37 27.018 67 27.018 86.625 27.157zm-75.594 3.219l24.032 19.5-23.97 20.406c-.098-13.89-.093-27.263-.062-39.906zm77.938 0C89 44.018 89 58.018 88.875 70.281L64.937 49.875zM38.25 52.437c2.6 2.096 5.248 4.303 7.844 6.344a8.678 8.678 0 0 0 7.812 0c2.616-2.045 5.242-4.23 7.844-6.344L85.844 72.97c-23.844.05-50.106 0-71.688-.031z"/></symbol><symbol id="phone-outline" viewBox="0 0 24 30"><g fill="none" fill-rule="evenodd"><path d="M0 0h24v24H0z"/><path d="M14.095 15.635l.678-.675.785-.78c.858-.85 2.003-.85 2.863 0 .798.792 1.607 1.6 2.43 2.43.87.876.864 2.022-.009 2.903-.172.174-.455.382-.84.63l-.27.17a25.823 25.823 0 0 1-1.144.663c-.989.57-2.594.694-3.623.296a9.284 9.284 0 0 1-.543-.19A20.306 20.306 0 0 1 8.846 17.8a18.379 18.379 0 0 1-2.638-2.694 20.82 20.82 0 0 1-3.344-6.04 8.011 8.011 0 0 1-.172-.545c-.388-1.067-.168-2.673.478-3.618a19.072 19.072 0 0 1 .883-1.244c.17-.215.323-.392.46-.527.86-.845 2.003-.844 2.863.001.351.345 1.866 1.86 2.414 2.414.887.895.89 2.027.003 2.917-.132.134-.421.423-.82.822l-.619.62-.23.23c.057.143.15.364.278.64.247.533.53 1.066.842 1.56.34.54.696 1 1.06 1.354a8.5 8.5 0 0 0 1.186.946c.526.353 1.093.67 1.66.943.293.141.53.244.69.31l.255-.255zM8.1 10.074zm12.041 7.24a414.572 414.572 0 0 0-2.424-2.423c-.47-.465-.987-.465-1.455-.001l-.781.777-.68.676-.308.307a.917.917 0 0 1-.959.194 12.064 12.064 0 0 1-.819-.364 14.569 14.569 0 0 1-1.783-1.013 9.42 9.42 0 0 1-1.327-1.06c-.425-.415-.827-.934-1.206-1.535a14.728 14.728 0 0 1-.905-1.676 12.36 12.36 0 0 1-.325-.759.921.921 0 0 1 .197-.956l.281-.282.618-.618.82-.821c.497-.5.496-1.003-.005-1.508-.545-.55-2.058-2.064-2.404-2.404-.472-.463-.992-.464-1.461-.002a4.63 4.63 0 0 0-.376.433 18.098 18.098 0 0 0-.836 1.178c-.474.693-.647 1.963-.358 2.765.024.09.078.268.165.52.146.428.332.905.561 1.42a19.828 19.828 0 0 0 2.618 4.32 17.38 17.38 0 0 0 2.497 2.549 19.315 19.315 0 0 0 3.983 2.55c.475.228.915.416 1.308.565.233.089.397.144.513.181.782.301 2.072.202 2.809-.223a24.85 24.85 0 0 0 1.362-.803c.326-.21.564-.384.67-.492.489-.492.491-1.01.01-1.495z" fill="#000" fill-rule="nonzero"/></g></symbol><symbol id="phone" viewBox="0 0 100 125"><path d="M94.077 80.619C88.979 92.841 77.026 94.983 73.12 94.983c-1.147 0-19.01.947-44.688-23.41C7.767 51.971 5.242 30.892 5.022 26.887c-.214-3.901.903-13.687 14.365-20.958 1.668-.901 4.975-1.3 5.829-.446.379.379 11.678 18.972 11.975 19.588.297.615.446 1.221.446 1.815 0 .849-.605 1.911-1.816 3.185a30.947 30.947 0 0 1-3.949 3.503 38.454 38.454 0 0 0-3.95 3.376c-1.21 1.188-1.815 2.166-1.815 2.93.082 1.983 1.707 9.086 14.086 19.963C52.574 70.723 58.538 73.788 59.111 74c.574.212 1.051.317 1.433.317.765 0 1.742-.604 2.931-1.814 1.188-1.211 5.185-6.689 6.459-7.9 1.274-1.209 2.336-1.814 3.186-1.814.594 0 1.199.148 1.814.445.616.297 19.233 11.191 19.589 11.555.966.99.284 4.08-.446 5.83"/></symbol><symbol id="play" viewBox="0 0 51.3 61.5"><path d="M0 0v61.5l51.3-30.8L0 0zm4 7.1l39.5 23.7L4 54.5V7.1z"/></symbol><symbol id="plus" viewBox="0 0 27 27"><path fill="#fff" d="M27 12H15V0h-3v12H0v3h12v12h3V15h12v-3z"/></symbol><symbol id="user" viewBox="0 0 100 125"><path d="M87.834 92.5H13.166c-2.572 0-4.666-2.109-4.666-4.703V82.5c0-7.281 15.473-13.129 29.863-16.994C29.981 57.49 26.5 48.234 26.5 34.5c0-15.723 9.342-25.906 23.816-25.992.061-.006.122-.008.184-.008 14.58 0 24 10.205 24 26 0 13.73-3.48 22.988-11.863 31.006C77.028 69.369 92.5 75.219 92.5 82.5v5.297c0 2.594-2.094 4.703-4.666 4.703zm-37.164-80a1.612 1.612 0 0 1-.17.008c-9.668 0-20 5.777-20 21.992 0 14.047 3.721 22.586 13.271 30.457a1.997 1.997 0 0 1-.787 3.482C22.039 73.676 12.5 79.398 12.5 82.5v5.297c0 .381.305.703.666.703h74.668c.367 0 .666-.314.666-.703V82.5c0-3.102-9.539-8.824-30.484-14.061a1.999 1.999 0 0 1-.787-3.482C66.78 57.084 70.5 48.545 70.5 34.5c0-16.125-10.211-21.932-19.83-22z"/></symbol><symbol id="vk" viewBox="0 0 30 30"><path clip-rule="evenodd" d="M16 24c1 0 1-1.441 1-2 0-1 1-2 2-2s2.715 1.715 4 3c1 1 1 1 2 1h3s2-.076 2-2c0-.625-.685-1.685-3-4-2-2-3.026-.967 0-5 1.843-2.456 3.184-4.681 2.954-5.323C29.734 7.064 24.608 6.088 24 7c-2 3-2.367 3.735-3 5-1 2-1.099 3-2 3-.909 0-1-1.941-1-3 0-3.306.479-5.644-1-6h-3c-1.61 0-3 1-3 1s-1.241.968-1 1c.298.04 2-.414 2 1v2s.009 4-1 4c-1 0-3-4-5-7-.785-1.177-1-1-2-1-1.072 0-1.999.042-3 .042-1 0-1.128.637-1 .958 2 5 3.437 8.14 7.237 12.096C10.722 23.725 13.05 23.918 15 24c.5.021 0 0 1 0z" fill-rule="evenodd"/></symbol><symbol id="logo-b" viewBox="0 0 70 100"><path d="M59.65 50.33a27.47 27.47 0 0 0 9.8-18.73C70.59 21 66.27 10.86 58.17 5c-4.7-3.39-8.73-5-12.31-5H0v11.11h45.86c.18 0 1.89.08 5.89 3 4.86 3.5 7.44 9.76 6.73 16.33-.66 6.13-4 11.06-9 13.21a9.25 9.25 0 0 1-3.65.83H0v11.08h46.23c.18 0 1.89.08 5.89 3C57 62 59.55 68.27 58.85 74.85c-.66 6.13-4 11.06-9 13.21a9.25 9.25 0 0 1-3.65.83H0V100h46.23a20.16 20.16 0 0 0 8-1.73C62.9 94.52 68.73 86.21 69.82 76a28.9 28.9 0 0 0-10.17-25.67z"/></symbol><symbol id="logo-r" viewBox="0 0 70 100"><path d="M58.47 51.53a27.29 27.29 0 0 0 11.35-19.88C71 21.08 66.61 10.88 58.48 5c-4.73-3.35-8.78-5-12.37-5H0v11.13h46.11c.18 0 1.9.08 5.92 3 4.88 3.51 7.48 9.77 6.77 16.36-.66 6.14-4 11.08-9 13.23a8.94 8.94 0 0 1-3.66.65H0v11.1h44.72c2.24 0 5.67 2.69 6.71 3.94A34.52 34.52 0 0 1 58.79 78v22h11.1V78a36.14 36.14 0 0 0-9-23.62z"/></symbol></svg>